<svg width="38" height="40" viewBox="0 0 38 40" fill="none" xmlns="http://www.w3.org/2000/svg">
<path d="M31.9836 1.99558H29.2099C27.9512 1.99707 26.9311 3.01711 26.9296 4.27584V6.70941L20.5702 0.662069C19.6547 -0.22069 18.2047 -0.22069 17.2891 0.662069L0.780677 16.3606C0.0322313 17.0717 -0.204046 18.1688 0.185296 19.1249C0.535649 20.0545 1.42685 20.6684 2.42024 20.6644H2.92694V37.6663C2.93944 38.9656 4.00128 40.0096 5.30057 40H32.5571C33.8564 40.0096 34.9182 38.9656 34.9307 37.6663V20.6644H35.4374C36.4308 20.6684 37.322 20.0545 37.6724 19.1249C38.0617 18.1687 37.8254 17.0717 37.077 16.3606L34.264 13.685V4.27584C34.2624 3.01711 33.2423 1.99707 31.9836 1.99558V1.99558ZM28.2631 4.27584C28.2638 3.75328 28.6873 3.3298 29.2099 3.32909H31.9836C32.5061 3.3298 32.9296 3.75328 32.9303 4.27584V12.4168L28.2631 7.9776V4.27584ZM36.4335 18.6309C36.2802 19.0494 35.883 19.3286 35.4373 19.3309H34.2638C33.8956 19.3309 33.5971 19.6295 33.5971 19.9977V37.6663C33.5851 38.2293 33.12 38.6765 32.557 38.6664H5.3005C4.73746 38.6765 4.27241 38.2293 4.26037 37.6663V19.9977C4.26037 19.6294 3.96182 19.3309 3.59366 19.3309H2.42016C1.97449 19.3286 1.57725 19.0494 1.42403 18.6309C1.2355 18.1812 1.34512 17.6618 1.69938 17.3267L18.21 1.62288C18.6088 1.22877 19.2505 1.22877 19.6494 1.62288L36.1587 17.3247C36.5135 17.6604 36.6229 18.1807 36.4335 18.6309V18.6309Z" fill="#025595"/>
<path fill-rule="evenodd" clip-rule="evenodd" d="M7.76172 24.7083C7.76172 30.6038 12.5589 35.4007 18.4544 35.4007C24.3499 35.4007 29.1468 30.6038 29.1468 24.7083C29.1468 24.3564 29.1303 24.0084 29.0973 23.6653C29.0584 23.2648 28.7036 22.9731 28.3012 23.0101C27.9007 23.0489 27.6072 23.4047 27.646 23.8062C27.6741 24.1026 27.6887 24.4039 27.6887 24.7083C27.6887 29.7998 23.5459 33.9426 18.4544 33.9426C13.3627 33.9426 9.2198 29.7998 9.2198 24.7083C9.2198 19.6166 13.3627 15.4737 18.4544 15.4737C20.2245 15.4737 21.9468 15.9781 23.4341 16.9337C23.7734 17.1514 24.2235 17.0533 24.4421 16.7141C24.6599 16.3749 24.5608 15.9238 24.2224 15.706C22.499 14.5998 20.5044 14.0156 18.4544 14.0156C12.5589 14.0156 7.76172 18.8128 7.76172 24.7083ZM19.1542 26.9242C19.2961 27.0669 19.4828 27.138 19.6693 27.138C19.856 27.138 20.0426 27.0669 20.1855 26.9251L30.8781 16.2324C31.1629 15.9477 31.1629 15.486 30.8781 15.2012C30.5933 14.9164 30.1316 14.9164 29.8467 15.2012L19.6704 25.3777L15.8112 21.5185C15.5265 21.2337 15.0648 21.2337 14.78 21.5185C14.4952 21.8033 14.4952 22.265 14.78 22.55L19.1542 26.9242Z" fill="#025595"/>
</svg>
