<svg width="38" height="40" viewBox="0 0 38 40" fill="none" xmlns="http://www.w3.org/2000/svg">
<path d="M31.9836 1.99558H29.2099C27.9512 1.99707 26.9311 3.01711 26.9296 4.27584V6.70941L20.5702 0.662069C19.6547 -0.22069 18.2047 -0.22069 17.2891 0.662069L0.780677 16.3606C0.0322313 17.0717 -0.204046 18.1688 0.185296 19.1249C0.535649 20.0545 1.42685 20.6684 2.42024 20.6644H2.92694V37.6663C2.93944 38.9656 4.00128 40.0096 5.30057 40H32.5571C33.8564 40.0096 34.9182 38.9656 34.9307 37.6663V20.6644H35.4374C36.4308 20.6684 37.322 20.0545 37.6724 19.1249C38.0617 18.1687 37.8254 17.0717 37.077 16.3606L34.264 13.685V4.27584C34.2624 3.01711 33.2423 1.99707 31.9836 1.99558V1.99558ZM28.2631 4.27584C28.2638 3.75328 28.6873 3.3298 29.2099 3.32909H31.9836C32.5061 3.3298 32.9296 3.75328 32.9303 4.27584V12.4168L28.2631 7.9776V4.27584ZM36.4335 18.6309C36.2802 19.0494 35.883 19.3286 35.4373 19.3309H34.2638C33.8956 19.3309 33.5971 19.6295 33.5971 19.9977V37.6663C33.5851 38.2293 33.12 38.6765 32.557 38.6664H5.3005C4.73746 38.6765 4.27241 38.2293 4.26037 37.6663V19.9977C4.26037 19.6294 3.96182 19.3309 3.59366 19.3309H2.42016C1.97449 19.3286 1.57725 19.0494 1.42403 18.6309C1.2355 18.1812 1.34512 17.6618 1.69938 17.3267L18.21 1.62288C18.6088 1.22877 19.2505 1.22877 19.6494 1.62288L36.1587 17.3247C36.5135 17.6604 36.6229 18.1807 36.4335 18.6309V18.6309Z" fill="white"/>
<path d="M17.0185 34.3673L17.0185 34.3674C18.2363 35.587 19.8556 36.2579 21.5797 36.2579C24.4729 36.2579 26.8272 33.9045 26.8272 31.0114V22.7487C26.8272 22.2683 26.4364 21.8767 25.9551 21.8767C25.4738 21.8767 25.083 22.2683 25.083 22.7487V25.179C25.083 25.5025 24.8205 25.765 24.497 25.765C24.1735 25.765 23.9109 25.5025 23.9109 25.179V21.7767C23.9109 21.2963 23.5202 20.9046 23.0389 20.9046C22.5576 20.9046 22.1668 21.2962 22.1668 21.7767V25.179C22.1668 25.5025 21.9043 25.765 21.5807 25.765C21.2572 25.765 20.9947 25.5025 20.9947 25.179V20.8046C20.9947 20.3242 20.6039 19.9325 20.1226 19.9325C19.6413 19.9325 19.2505 20.3241 19.2505 20.8046V25.179C19.2505 25.5025 18.988 25.765 18.6645 25.765C18.341 25.765 18.0784 25.5025 18.0784 25.179V15.9442C18.0784 15.4638 17.6877 15.0721 17.2064 15.0721C16.7251 15.0721 16.3343 15.4637 16.3343 15.9442V28.0952C16.3343 28.2982 16.2288 28.4868 16.0565 28.5934C15.8848 28.7003 15.6682 28.7093 15.487 28.6193L15.4868 28.6192L12.1108 26.9317L17.0185 34.3673ZM17.0185 34.3673L10.7321 28.0818L10.7319 28.0816M17.0185 34.3673L10.7319 28.0816M10.7319 28.0816C10.5839 27.9345 10.5018 27.7376 10.5018 27.5217M10.7319 28.0816L10.5018 27.5217M10.5018 27.5217C10.5018 27.089 10.8536 26.7371 11.2864 26.7371M10.5018 27.5217L11.2864 26.7371M11.2864 26.7371C11.5711 26.7371 11.8552 26.8044 12.1107 26.9317L11.2864 26.7371ZM12.6347 25.8828L12.5899 25.9722L12.6347 25.8828C12.2183 25.6745 11.7519 25.565 11.2864 25.565C10.2064 25.565 9.32969 26.4431 9.32969 27.5275C9.32969 28.0508 9.5337 28.5419 9.90336 28.9115L16.1888 35.197C16.1888 35.197 16.1888 35.197 16.1888 35.197C17.6278 36.637 19.544 37.43 21.5807 37.43C25.1199 37.43 27.9993 34.5506 27.9993 31.0114V22.7487C27.9993 21.6213 27.0826 20.7046 25.9551 20.7046C25.5794 20.7046 25.2265 20.8068 24.9237 20.9841C24.6134 20.25 23.8855 19.7325 23.0389 19.7325C22.6632 19.7325 22.3103 19.8347 22.0074 20.0121C21.6972 19.2779 20.9693 18.7604 20.1226 18.7604C19.8111 18.7604 19.5151 18.8307 19.2505 18.9563V15.9442C19.2505 14.8167 18.3338 13.9 17.2064 13.9C16.0789 13.9 15.1622 14.8167 15.1622 15.9442V27.147L12.6347 25.8828Z" fill="white" stroke="white" stroke-width="0.2"/>
</svg>
