<svg width="38" height="40" viewBox="0 0 38 40" fill="none" xmlns="http://www.w3.org/2000/svg">
<path d="M31.9836 1.99558H29.2099C27.9512 1.99707 26.9311 3.01711 26.9296 4.27584V6.70941L20.5702 0.662069C19.6547 -0.22069 18.2047 -0.22069 17.2891 0.662069L0.780677 16.3606C0.0322313 17.0717 -0.204046 18.1688 0.185296 19.1249C0.535649 20.0545 1.42685 20.6684 2.42024 20.6644H2.92694V37.6663C2.93944 38.9656 4.00128 40.0096 5.30057 40H32.5571C33.8564 40.0096 34.9182 38.9656 34.9307 37.6663V20.6644H35.4374C36.4308 20.6684 37.322 20.0545 37.6724 19.1249C38.0617 18.1687 37.8254 17.0717 37.077 16.3606L34.264 13.685V4.27584C34.2624 3.01711 33.2423 1.99707 31.9836 1.99558V1.99558ZM28.2631 4.27584C28.2638 3.75328 28.6873 3.3298 29.2099 3.32909H31.9836C32.5061 3.3298 32.9296 3.75328 32.9303 4.27584V12.4168L28.2631 7.9776V4.27584ZM36.4335 18.6309C36.2802 19.0494 35.883 19.3286 35.4373 19.3309H34.2638C33.8956 19.3309 33.5971 19.6295 33.5971 19.9977V37.6663C33.5851 38.2293 33.12 38.6765 32.557 38.6664H5.3005C4.73746 38.6765 4.27241 38.2293 4.26037 37.6663V19.9977C4.26037 19.6294 3.96182 19.3309 3.59366 19.3309H2.42016C1.97449 19.3286 1.57725 19.0494 1.42403 18.6309C1.2355 18.1812 1.34512 17.6618 1.69938 17.3267L18.21 1.62288C18.6088 1.22877 19.2505 1.22877 19.6494 1.62288L36.1587 17.3247C36.5135 17.6604 36.6229 18.1807 36.4335 18.6309V18.6309Z" fill="#025595"/>
<path d="M8.92775 23.9981C8.92501 27.6801 10.9475 31.0652 14.1911 32.8077C17.4347 34.5502 21.3737 34.3675 24.4422 32.3324L28.852 36.7429C29.3564 37.2472 30.0915 37.4441 30.7804 37.2594C31.4693 37.0747 32.0074 36.5365 32.1919 35.8476C32.3765 35.1586 32.1794 34.4236 31.675 33.9193L27.2631 29.5115C29.6303 25.9429 29.4628 21.2632 26.8465 17.8731C24.2303 14.4829 19.746 13.1345 15.6939 14.5196C11.6418 15.9047 8.92134 19.7158 8.92775 23.9981V23.9981ZM30.7357 34.866C30.8618 34.9885 30.9329 35.1569 30.9329 35.3327C30.9329 35.5085 30.8618 35.6769 30.7357 35.7994C30.4759 36.0566 30.0574 36.0566 29.7976 35.7994L25.5091 31.5109C25.8419 31.2195 26.155 30.9063 26.4466 30.5735L30.7357 34.866ZM27.5966 23.9981C27.5966 28.7851 23.7159 32.6657 18.929 32.6657C14.142 32.6657 10.2613 28.7851 10.2613 23.9981C10.2613 19.2111 14.1419 15.3305 18.9289 15.3305C23.7137 15.3359 27.5911 19.2133 27.5966 23.9981V23.9981Z" fill="#025595"/>
<path fill-rule="evenodd" clip-rule="evenodd" d="M15.9482 17.2967C13.3027 18.4769 11.5974 21.1012 11.5938 23.9981C11.5938 24.3664 11.8923 24.6648 12.2605 24.6648C12.6287 24.6648 12.9272 24.3663 12.9272 23.9981C12.9307 21.6274 14.3266 19.48 16.4916 18.5141C16.7138 18.4201 16.8678 18.2133 16.8944 17.9735C16.9209 17.7337 16.8158 17.4982 16.6196 17.3579C16.4234 17.2175 16.1666 17.1941 15.9482 17.2967V17.2967Z" fill="#025595"/>
<path d="M18.9284 17.9974C19.2967 17.9974 19.5952 17.6989 19.5952 17.3307C19.5952 16.9625 19.2967 16.664 18.9284 16.664C18.5602 16.664 18.2617 16.9625 18.2617 17.3307C18.2617 17.6989 18.5602 17.9974 18.9284 17.9974Z" fill="#025595"/>
</svg>
