<svg width="46" height="27" viewBox="0 0 46 27" fill="none" xmlns="http://www.w3.org/2000/svg">
<path d="M42.1279 3.11129C40.3896 1.40155 38.0761 0.375826 35.6226 0.227146C33.1694 0.0784665 30.7453 0.817085 28.8069 2.304C27.0369 0.951016 24.8592 0.216363 22.6176 0.215935C20.376 0.215508 18.1982 0.949333 16.4275 2.30164C14.4081 0.742709 11.8601 0.000856694 9.30361 0.227536C6.74713 0.454214 4.37498 1.63233 2.67146 3.52136C0.967928 5.4104 0.0614926 7.86789 0.1372 10.3921C0.212907 12.9164 1.26505 15.3171 3.07883 17.1039L9.2731 23.1989C9.2779 23.2035 9.2827 23.2079 9.28809 23.2127C9.29349 23.2174 9.29499 23.2196 9.29844 23.223C9.30489 23.2293 9.31178 23.2351 9.31823 23.2414C9.41669 23.3373 9.51663 23.4307 9.61809 23.5217C9.67026 23.5687 9.72304 23.6143 9.77611 23.6602C9.81918 23.6971 9.86247 23.7336 9.90595 23.7698C11.6717 25.2417 13.8985 26.0711 16.2124 26.1183C18.5264 26.1657 20.7862 25.4282 22.6126 24.0295C24.5511 25.5164 26.9751 26.2551 29.4284 26.1064C31.8818 25.9577 34.1953 24.932 35.9336 23.2222L42.128 17.1281C44.0146 15.268 45.074 12.7474 45.074 10.1197C45.074 7.49191 44.0144 4.97147 42.1279 3.11129ZM22.6156 2.7974C24.0884 2.79647 25.5283 3.22543 26.7531 4.02996C27.978 4.83449 28.9326 5.97842 29.4963 7.31699C30.06 8.65556 30.2074 10.1286 29.9198 11.5496C29.6323 12.9706 28.9227 14.2757 27.8808 15.2998L22.6156 20.4797L17.3503 15.2998C16.3085 14.2757 15.5989 12.9706 15.3113 11.5496C15.0237 10.1285 15.1711 8.6555 15.7348 7.31693C16.2986 5.97835 17.2533 4.83441 18.4781 4.0299C19.703 3.22538 21.1429 2.79644 22.6156 2.7974ZM8.97489 16.214C8.97221 15.2516 9.16361 14.2982 9.53798 13.4091C9.91235 12.5199 10.4623 11.7127 11.1559 11.034L12.5573 9.65529C12.4894 11.0334 12.7155 12.4102 13.2209 13.6972C13.7263 14.9842 14.4999 16.1528 15.492 17.1281L20.6495 22.2023C19.537 22.9688 18.232 23.4203 16.8767 23.5074C15.5215 23.5944 14.1678 23.3138 12.9635 22.6961C11.7592 22.0782 10.7503 21.1472 10.047 20.004C9.34358 18.861 8.97265 17.5498 8.97459 16.2136L8.97489 16.214ZM4.93688 15.2755C3.61894 13.9792 2.84308 12.2437 2.76255 10.4119C2.68203 8.58014 3.30268 6.78524 4.50193 5.38181C5.70117 3.97837 7.3918 3.06845 9.23983 2.83178C11.0879 2.59511 12.9589 3.04892 14.4834 4.10355L9.29754 9.20555C8.35912 10.1238 7.61515 11.216 7.10868 12.419C6.60222 13.622 6.34331 14.9119 6.34696 16.214C6.34696 16.3677 6.3506 16.5209 6.3579 16.6735L4.93688 15.2755ZM28.8104 23.5395C27.289 23.5431 25.8037 23.0846 24.5571 22.2267L29.7399 17.1281C30.732 16.1528 31.5055 14.9842 32.0109 13.6972C32.5163 12.4102 32.7424 11.0334 32.6746 9.65529L34.076 11.034C35.1174 12.0586 35.8264 13.3639 36.1137 14.7849C36.4011 16.2059 36.2535 17.6789 35.6898 19.0175C35.1262 20.3561 34.1718 21.5001 32.9473 22.3051C31.7227 23.11 30.2831 23.5395 28.8104 23.5395ZM40.2698 15.2998L38.8735 16.6735C38.8806 16.521 38.8842 16.3679 38.8845 16.214C38.8881 14.9119 38.6292 13.622 38.1227 12.419C37.6162 11.216 36.8721 10.1238 35.9337 9.20555L30.7515 4.10694C32.2787 3.0614 34.1484 2.61627 35.9925 2.85916C37.8366 3.10204 39.5215 4.01537 40.7154 5.41929C41.9093 6.82322 42.5256 8.61601 42.4432 10.4447C42.3607 12.2734 41.5854 14.0054 40.2698 15.2998Z" fill="#025595"/>
</svg>
