<svg width="51" height="30" viewBox="0 0 51 30" fill="none" xmlns="http://www.w3.org/2000/svg">
<path d="M47.1436 3.35038C45.1968 1.39126 42.6056 0.215917 39.8578 0.0455513C37.1102 -0.124815 34.3952 0.721539 32.2242 2.42534C30.2418 0.875005 27.8028 0.0331948 25.2922 0.0327052C22.7817 0.0322155 20.3425 0.873076 18.3594 2.42263C16.0977 0.636314 13.2439 -0.213745 10.3806 0.0459975C7.51737 0.305739 4.86058 1.6557 2.95264 3.82026C1.0447 5.98484 0.0294971 8.80077 0.114289 11.6932C0.199081 14.5856 1.37747 17.3365 3.40889 19.384L10.3464 26.368C10.3518 26.3733 10.3572 26.3783 10.3632 26.3837C10.3693 26.3892 10.371 26.3917 10.3748 26.3956C10.382 26.4028 10.3898 26.4094 10.397 26.4167C10.5073 26.5266 10.6192 26.6336 10.7328 26.7378C10.7913 26.7918 10.8504 26.844 10.9098 26.8965C10.9581 26.9388 11.0065 26.9807 11.0552 27.0221C13.0328 28.7088 15.5269 29.6592 18.1184 29.7132C20.71 29.7675 23.2411 28.9224 25.2867 27.3198C27.4577 29.0235 30.1726 29.8699 32.9202 29.6996C35.6681 29.5292 38.2592 28.3538 40.2061 26.3947L47.1438 19.4117C49.2567 17.2802 50.4432 14.3921 50.4432 11.381C50.4432 8.36996 49.2565 5.48189 47.1436 3.35038ZM25.29 2.9907C26.9395 2.98964 28.5522 3.48116 29.9239 4.40304C31.2958 5.32492 32.3649 6.63571 32.9963 8.16952C33.6277 9.70333 33.7928 11.3912 33.4707 13.0195C33.1486 14.6478 32.3539 16.1433 31.187 17.3167L25.29 23.2522L19.3929 17.3167C18.226 16.1433 17.4313 14.6478 17.1092 13.0194C16.7871 11.3911 16.9522 9.70327 17.5836 8.16946C18.2149 6.63563 19.2843 5.32484 20.656 4.40297C22.0279 3.48111 23.6406 2.9896 25.29 2.9907ZM10.0125 18.3643C10.0095 17.2615 10.2238 16.1691 10.6431 15.1502C11.0624 14.1314 11.6783 13.2064 12.4552 12.4287L14.0247 10.8489C13.9487 12.428 14.2019 14.0057 14.768 15.4804C15.334 16.955 16.2005 18.2942 17.3115 19.4117L23.0879 25.226C21.842 26.1044 20.3804 26.6217 18.8624 26.7214C17.3446 26.8212 15.8285 26.4997 14.4797 25.7918C13.1309 25.0838 12.001 24.017 11.2132 22.7071C10.4254 21.3974 10.0099 19.8949 10.0121 18.3638L10.0125 18.3643ZM5.48991 17.2888C4.01382 15.8034 3.14486 13.8148 3.05467 11.7159C2.96448 9.61692 3.65961 7.56021 5.00276 5.95208C6.34591 4.34394 8.23941 3.30129 10.3092 3.0301C12.379 2.75891 14.4746 3.27891 16.182 4.48736L10.3738 10.3336C9.3228 11.3857 8.48956 12.6373 7.92231 14.0157C7.35508 15.3942 7.0651 16.8723 7.06918 18.3643C7.06918 18.5404 7.07326 18.7159 7.08144 18.8908L5.48991 17.2888ZM32.2281 26.7583C30.5242 26.7624 28.8606 26.237 27.4644 25.254L33.2692 19.4117C34.3803 18.2942 35.2466 16.955 35.8126 15.4803C36.3787 14.0056 36.6319 12.428 36.556 10.8489L38.1256 12.4287C39.2919 13.6027 40.086 15.0984 40.4077 16.7268C40.7296 18.355 40.5644 20.0428 39.933 21.5767C39.3018 23.1105 38.2329 24.4214 36.8615 25.3438C35.4899 26.2661 33.8775 26.7583 32.2281 26.7583ZM45.0626 17.3167L43.4988 18.8908C43.5067 18.716 43.5107 18.5406 43.511 18.3643C43.5151 16.8723 43.2251 15.3942 42.6578 14.0157C42.0906 12.6372 41.2572 11.3857 40.2062 10.3336L34.4021 4.49125C36.1125 3.29321 38.2067 2.78315 40.2721 3.06147C42.3375 3.33978 44.2245 4.38633 45.5617 5.99503C46.8988 7.60373 47.5891 9.65802 47.4968 11.7534C47.4044 13.8489 46.5361 15.8335 45.0626 17.3167Z" fill="#025595"/>
</svg>
